<?xml version="1.0" encoding="UTF-8"?>
<!DOCTYPE svg  PUBLIC '-//W3C//DTD SVG 1.0//EN'  'http://www.w3.org/TR/2001/REC-SVG-20010904/DTD/svg10.dtd'>
<svg width="17.672mm" height="23.866mm" clip-rule="evenodd" fill-rule="evenodd" image-rendering="optimizeQuality" shape-rendering="geometricPrecision" text-rendering="geometricPrecision" version="1.0" viewBox="0 0 943 1273" xml:space="preserve" xmlns="http://www.w3.org/2000/svg">
 <defs>
  <style type="text/css">
   <![CDATA[
    .fil0 {fill:#00CCFF}
    .fil1 {fill:#336699}
    .fil2 {fill:white;fill-rule:nonzero}
   ]]>
  </style>
 </defs>
   <path class="fil0" d="m38 0h640l265 291v941c0 22-17 41-38 41h-867c-21 0-38-19-38-41v-1191c0-22 17-41 38-41z"/>
   <path class="fil1" d="m943 291h-227c-21 0-38-19-38-42v-249l265 291z"/>
  <path class="fil2" d="m120 647c8 0 15 3 20 8 6 6 8 12 8 20s-2 14-8 20c-5 5-12 8-20 8-7 0-14-3-19-8-6-6-9-12-9-20s3-14 9-20c5-5 12-8 19-8zm125-143v21c9-8 18-15 29-19 10-5 21-7 32-7 26 0 47 10 65 29s27 43 27 73c0 29-9 53-28 73-18 19-40 29-65 29-11 0-22-2-31-6-10-4-19-10-29-20v92h-49v-265h49zm51 40c-15 0-28 5-38 15-10 11-15 25-15 42s5 31 15 41c10 11 23 16 38 16s28-5 38-16 15-25 15-41c0-17-5-31-15-41-10-11-23-16-38-16zm142-40h49v20c11-9 21-16 30-19 9-4 18-6 27-6 20 0 36 7 49 20 12 12 17 29 17 51v128h-48v-85c0-23-1-38-3-46-2-7-6-13-11-17s-11-6-19-6c-10 0-18 3-25 10-8 6-12 15-15 27-2 6-2 19-2 39v78h-49v-194zm364 0h48v166c0 33-6 57-20 73-17 21-44 31-80 31-19 0-35-2-48-7s-24-12-33-21-16-21-20-34h54c5 6 11 10 19 12 7 3 16 5 26 5 13 0 24-2 32-6s14-10 17-16 5-17 5-33c-9 9-18 15-27 19-10 3-20 5-32 5-26 0-49-9-67-28s-27-43-27-71c0-31 10-56 29-75 17-16 38-25 62-25 11 0 22 2 32 6s20 11 30 21v-22zm-51 41c-16 0-28 5-38 15-10 11-15 23-15 39s5 29 15 40c10 10 23 15 39 15 15 0 27-5 37-15s15-23 15-40c0-16-5-29-15-39s-22-15-38-15z"/>
</svg>
