<?xml version="1.0" encoding="UTF-8"?>
<!DOCTYPE svg  PUBLIC '-//W3C//DTD SVG 1.0//EN'  'http://www.w3.org/TR/2001/REC-SVG-20010904/DTD/svg10.dtd'>
<svg width="17.672mm" height="23.866mm" clip-rule="evenodd" fill-rule="evenodd" image-rendering="optimizeQuality" shape-rendering="geometricPrecision" text-rendering="geometricPrecision" version="1.0" viewBox="0 0 427 577" xml:space="preserve" xmlns="http://www.w3.org/2000/svg">
 <defs>
  <style type="text/css">
   <![CDATA[
    .fil1 {fill:#4D4D4D}
    .fil0 {fill:#999999}
    .fil2 {fill:white;fill-rule:nonzero}
   ]]>
  </style>
 </defs>
   <path class="fil0" d="m17 0h290l120 132v426c0 10-8 19-17 19h-393c-9 0-17-9-17-19v-539c0-11 8-19 17-19z"/>
   <path class="fil1" d="m427 132h-103c-9 0-17-9-17-19v-113l120 132z"/>
  <path class="fil2" d="m98 308c3 0 5 1 8 3 2 2 3 5 3 8s-1 6-3 8c-3 2-5 3-8 3-4 0-6-1-8-3-3-2-4-5-4-8s1-6 4-8c2-2 4-3 8-3zm39-90c4 0 7 1 9 4 3 2 4 5 4 9 0 3-1 6-4 9-2 2-5 3-9 3-3 0-6-1-9-3-2-3-3-6-3-10 0-3 1-6 3-8 3-3 6-4 9-4zm-10 32h20v81c0 7-1 13-2 16-2 4-4 7-7 9s-7 3-12 3c-3 0-8-1-14-3v-16c3 2 6 2 8 2s4 0 6-2c1-1 1-4 1-8v-82zm59 0v9c3-4 7-6 11-8s9-3 13-3c11 0 19 4 26 12 8 7 11 17 11 29s-4 22-11 29c-7 8-16 12-26 12-5 0-9-1-13-2-4-2-7-5-11-8v37h-20v-107h20zm20 16c-6 0-11 2-15 6-4 5-6 10-6 17s2 12 6 17c4 4 9 6 15 6s11-2 15-6c5-5 7-10 7-17s-2-12-6-16c-4-5-10-7-16-7zm115-16h20v67c0 13-3 23-8 29-7 8-18 13-33 13-7 0-14-1-19-3s-10-5-13-9c-4-3-6-8-8-13h22c1 2 4 4 7 5s7 1 11 1c5 0 9 0 12-2 4-2 6-4 7-6 2-3 2-7 2-14-3 4-7 6-11 8-3 1-8 2-13 2-10 0-19-4-26-11-7-8-11-17-11-29s4-22 11-30c7-6 16-10 25-10 5 0 9 1 13 3 4 1 8 4 12 8v-9zm-20 17c-6 0-12 2-16 6s-6 9-6 15c0 7 2 12 7 16 4 4 9 6 15 6s11-2 15-6 6-9 6-16c0-6-2-11-6-15s-9-6-15-6z"/>
</svg>
